<?xml version="1.0" standalone="no"?>
<!DOCTYPE svg PUBLIC "-//W3C//DTD SVG 20010904//EN"
 "http://www.w3.org/TR/2001/REC-SVG-20010904/DTD/svg10.dtd">
<svg version="1.0" xmlns="http://www.w3.org/2000/svg"
 width="225.000000pt" height="225.000000pt" viewBox="0 0 225.000000 225.000000"
 preserveAspectRatio="xMidYMid meet">
<metadata>
Created by potrace 1.14, written by Peter Selinger 2001-2017
</metadata>
<g transform="translate(0.000000,225.000000) scale(0.100000,-0.100000)"
fill="#000000" stroke="none">
<path d="M965 1880 l-120 -120 123 -123 122 -122 122 122 123 123 -120 120
c-66 66 -122 120 -125 120 -3 0 -59 -54 -125 -120z"/>
<path d="M596 1520 c-177 -177 -217 -222 -207 -233 6 -8 61 -65 122 -127 l110
-113 227 226 227 227 -120 120 c-66 66 -124 120 -130 119 -5 0 -109 -99 -229
-219z"/>
<path d="M1225 1620 l-120 -120 227 -227 227 -227 121 123 c66 67 120 124 120
126 0 9 -437 445 -446 445 -5 0 -63 -54 -129 -120z"/>
<path d="M965 1180 l-120 -120 123 -123 122 -122 122 122 123 123 -120 120
c-66 66 -122 120 -125 120 -3 0 -59 -54 -125 -120z"/>
<path d="M429 620 c-39 -101 -44 -120 -30 -122 10 -3 22 8 31 27 13 26 21 30
63 33 45 3 48 2 58 -27 7 -20 18 -31 30 -31 10 0 19 1 19 3 0 11 -83 214 -92
224 -22 27 -34 10 -79 -107z m84 15 l16 -45 -35 0 c-19 0 -34 5 -34 10 0 14
28 80 34 80 2 0 11 -20 19 -45z"/>
<path d="M974 725 c-4 -9 -2 -21 4 -27 15 -15 44 -1 40 19 -4 23 -36 29 -44 8z"/>
<path d="M1370 648 c0 -51 -4 -99 -9 -106 -14 -22 -74 -11 -86 16 -10 22 -45
31 -45 12 0 -20 29 -68 45 -74 37 -14 86 -6 110 19 23 22 25 31 25 125 0 93
-1 100 -20 100 -19 0 -20 -7 -20 -92z"/>
<path d="M1630 620 l0 -120 28 0 c15 0 43 -3 64 -6 52 -9 78 19 78 86 0 69
-25 94 -86 87 l-44 -5 0 39 c0 32 -3 39 -20 39 -19 0 -20 -7 -20 -120z m118
11 c9 -5 12 -24 10 -52 -3 -42 -5 -44 -37 -47 -38 -4 -51 9 -51 50 0 45 42 72
78 49z"/>
<path d="M632 654 c-18 -13 -22 -25 -22 -73 0 -69 11 -81 74 -88 35 -4 48 -1
65 16 27 27 27 51 1 51 -11 0 -20 -6 -20 -14 0 -18 -33 -30 -60 -21 -24 8 -36
49 -24 84 7 20 17 27 42 29 22 2 34 -2 38 -12 7 -17 44 -22 44 -6 0 6 -9 19
-20 30 -24 24 -86 27 -118 4z"/>
<path d="M812 654 c-18 -13 -22 -24 -22 -74 0 -53 3 -61 25 -76 47 -31 135 -3
135 43 0 7 -9 13 -20 13 -11 0 -20 -6 -20 -14 0 -18 -33 -30 -60 -21 -24 8
-36 49 -24 84 7 20 17 27 42 29 22 2 34 -2 38 -12 7 -17 44 -22 44 -6 0 6 -9
19 -20 30 -24 24 -86 27 -118 4z"/>
<path d="M980 585 c0 -78 2 -85 20 -85 18 0 20 7 20 85 0 78 -2 85 -20 85 -18
0 -20 -7 -20 -85z"/>
<path d="M1070 650 c-14 -14 -20 -33 -20 -67 0 -54 5 -65 37 -82 40 -20 104
-9 125 23 4 6 8 32 8 59 0 63 -23 87 -85 87 -32 0 -51 -6 -65 -20z m94 -16
c11 -4 16 -19 16 -48 0 -46 -13 -66 -45 -66 -12 0 -26 5 -33 12 -16 16 -16 95
1 101 18 8 43 8 61 1z"/>
<path d="M1462 654 c-18 -13 -22 -25 -22 -74 0 -69 19 -90 83 -90 52 0 87 35
87 88 0 59 -30 92 -84 92 -23 0 -52 -7 -64 -16z m96 -26 c20 -20 15 -86 -7
-98 -44 -23 -81 1 -81 54 0 39 15 56 50 56 14 0 31 -5 38 -12z"/>
</g>
</svg>
